<svg xmlns="http://www.w3.org/2000/svg" width="404.1673889160156" height="404.31011962890625" viewBox="-88.44039154052734 -127.23760986328125 404.1673889160156 404.31011962890625"><title>Neo4j Graph Visualization</title><desc>Created using Neo4j (http://www.neo4j.com/)</desc><g class="layer relationships"><g class="relationship" transform="translate(130.51632059377664 248.0725082768966) rotate(265.78599055070646)"><path class="outline" fill="#A5ABB6" stroke="none" d="M 25 0.5 L 61.34508413349016 0.5 L 61.34508413349016 -0.5 L 25 -0.5 Z M 106.90758413349016 0.5 L 143.25266826698032 0.5 L 143.25266826698032 3.5 L 150.25266826698032 0 L 143.25266826698032 -3.5 L 143.25266826698032 -0.5 L 106.90758413349016 -0.5 Z"/><text text-anchor="middle" pointer-events="none" font-size="8px" fill="#000000" x="84.12633413349016" y="3" transform="rotate(180 84.12633413349016 0)" font-family="sans-serif">ACTED_IN</text></g><g class="relationship" transform="translate(174.4240573547971 179.73098895238346) rotate(241.91952159108314)"><path class="outline" fill="#A5ABB6" stroke="none" d="M 25 0.5 L 34.03774178933425 0.5 L 34.03774178933425 -0.5 L 25 -0.5 Z M 79.60024178933425 0.5 L 88.6379835786685 0.5 L 88.6379835786685 3.5 L 95.6379835786685 0 L 88.6379835786685 -3.5 L 88.6379835786685 -0.5 L 79.60024178933425 -0.5 Z"/><text text-anchor="middle" pointer-events="none" font-size="8px" fill="#000000" x="56.81899178933425" y="3" transform="rotate(180 56.81899178933425 0)" font-family="sans-serif">ACTED_IN</text></g><g class="relationship" transform="translate(247.4404812584204 189.9485799424075) rotate(221.94647784581446)"><path class="outline" fill="#A5ABB6" stroke="none" d="M 25 0.5 L 60.97836145881975 0.5 L 60.97836145881975 -0.5 L 25 -0.5 Z M 106.54086145881975 0.5 L 142.5192229176395 0.5 L 142.5192229176395 3.5 L 149.5192229176395 0 L 142.5192229176395 -3.5 L 142.5192229176395 -0.5 L 106.54086145881975 -0.5 Z"/><text text-anchor="middle" pointer-events="none" font-size="8px" fill="#000000" x="83.75961145881975" y="3" transform="rotate(180 83.75961145881975 0)" font-family="sans-serif">ACTED_IN</text></g><g class="relationship" transform="translate(97.43630328208275 198.0327564445618) rotate(279.19944584866244)"><path class="outline" fill="#A5ABB6" stroke="none" d="M 25 0.5 L 36.900975620931575 0.5 L 36.900975620931575 -0.5 L 25 -0.5 Z M 82.46347562093158 0.5 L 94.36445124186315 0.5 L 94.36445124186315 3.5 L 101.36445124186315 0 L 94.36445124186315 -3.5 L 94.36445124186315 -0.5 L 82.46347562093158 -0.5 Z"/><text text-anchor="middle" pointer-events="none" font-size="8px" fill="#000000" x="59.682225620931575" y="3" font-family="sans-serif">ACTED_IN</text></g><g class="relationship" transform="translate(194.44649221474447 236.24598831110538) rotate(244.76300963117313)"><path class="outline" fill="#A5ABB6" stroke="none" d="M 25 0.5 L 63.792268958945655 0.5 L 63.792268958945655 -0.5 L 25 -0.5 Z M 109.35476895894566 0.5 L 148.1470379178913 0.5 L 148.1470379178913 3.5 L 155.1470379178913 0 L 148.1470379178913 -3.5 L 148.1470379178913 -0.5 L 109.35476895894566 -0.5 Z"/><text text-anchor="middle" pointer-events="none" font-size="8px" fill="#000000" x="86.57351895894566" y="3" transform="rotate(180 86.57351895894566 0)" font-family="sans-serif">ACTED_IN</text></g><g class="relationship" transform="translate(286.7270077181764 118.82004999759405) rotate(195.06929831854882)"><path class="outline" fill="#A5ABB6" stroke="none" d="M 25 0.5 L 61.2738952884833 0.5 L 61.2738952884833 -0.5 L 25 -0.5 Z M 106.8363952884833 0.5 L 143.1102905769666 0.5 L 143.1102905769666 3.5 L 150.1102905769666 0 L 143.1102905769666 -3.5 L 143.1102905769666 -0.5 L 106.8363952884833 -0.5 Z"/><text text-anchor="middle" pointer-events="none" font-size="8px" fill="#000000" x="84.0551452884833" y="3" transform="rotate(180 84.0551452884833 0)" font-family="sans-serif">ACTED_IN</text></g><g class="relationship" transform="translate(228.48240712482817 133.02421600684616) rotate(208.31892541834304)"><path class="outline" fill="#A5ABB6" stroke="none" d="M 25 0.5 L 36.675358091961364 0.5 L 36.675358091961364 -0.5 L 25 -0.5 Z M 82.23785809196136 0.5 L 93.91321618392273 0.5 L 93.91321618392273 3.5 L 100.91321618392273 0 L 93.91321618392273 -3.5 L 93.91321618392273 -0.5 L 82.23785809196136 -0.5 Z"/><text text-anchor="middle" pointer-events="none" font-size="8px" fill="#000000" x="59.456608091961364" y="3" transform="rotate(180 59.456608091961364 0)" font-family="sans-serif">ACTED_IN</text></g><g class="relationship" transform="translate(285.55878970222847 58.82569722370866) rotate(535.0755876263328)"><path class="outline" fill="#A5ABB6" stroke="none" d="M 25 0.5 L 57.99000824874642 0.5 L 57.99000824874642 -0.5 L 25 -0.5 Z M 103.55250824874642 0.5 L 136.54251649749284 0.5 L 136.54251649749284 3.5 L 143.54251649749284 0 L 136.54251649749284 -3.5 L 136.54251649749284 -0.5 L 103.55250824874642 -0.5 Z"/><text text-anchor="middle" pointer-events="none" font-size="8px" fill="#000000" x="80.77125824874642" y="3" transform="rotate(180 80.77125824874642 0)" font-family="sans-serif">ACTED_IN</text></g><g class="relationship" transform="translate(230.00871793583323 36.19841985606756) rotate(521.7311316672129)"><path class="outline" fill="#A5ABB6" stroke="none" d="M 25 0.5 L 32.22212766663444 0.5 L 32.22212766663444 -0.5 L 25 -0.5 Z M 79.11275266663444 0.5 L 86.33488033326888 0.5 L 86.33488033326888 3.5 L 93.33488033326888 0 L 86.33488033326888 -3.5 L 86.33488033326888 -0.5 L 79.11275266663444 -0.5 Z"/><text text-anchor="middle" pointer-events="none" font-size="8px" fill="#000000" x="55.66744016663444" y="3" transform="rotate(180 55.66744016663444 0)" font-family="sans-serif">DIRECTED</text></g><g class="relationship" transform="translate(266.12199337212957 -11.680640498779779) rotate(510.2183351249713)"><path class="outline" fill="#A5ABB6" stroke="none" d="M 25 0.5 L 64.15275354640343 0.5 L 64.15275354640343 -0.5 L 25 -0.5 Z M 99.92619104640343 0.5 L 139.07894459280686 0.5 L 139.07894459280686 3.5 L 146.07894459280686 0 L 139.07894459280686 -3.5 L 139.07894459280686 -0.5 L 99.92619104640343 -0.5 Z"/><text text-anchor="middle" pointer-events="none" font-size="8px" fill="#000000" x="82.03947229640343" y="3" transform="rotate(180 82.03947229640343 0)" font-family="sans-serif">WROTE</text></g><g class="relationship" transform="translate(227.13989237914274 -59.381640387164694) rotate(489.53403834294795)"><path class="outline" fill="#A5ABB6" stroke="none" d="M 25 0.5 L 64.62680467596385 0.5 L 64.62680467596385 -0.5 L 25 -0.5 Z M 100.40024217596385 0.5 L 140.0270468519277 0.5 L 140.0270468519277 3.5 L 147.0270468519277 0 L 140.0270468519277 -3.5 L 140.0270468519277 -0.5 L 100.40024217596385 -0.5 Z"/><text text-anchor="middle" pointer-events="none" font-size="8px" fill="#000000" x="82.51352342596385" y="3" transform="rotate(180 82.51352342596385 0)" font-family="sans-serif">WROTE</text></g><g class="relationship" transform="translate(157.24194847336497 -91.18321812673697) rotate(463.53825183039714)"><path class="outline" fill="#A5ABB6" stroke="none" d="M 25 0.5 L 63.20210221730855 0.5 L 63.20210221730855 -0.5 L 25 -0.5 Z M 98.97553971730855 0.5 L 137.1776419346171 0.5 L 137.1776419346171 3.5 L 144.1776419346171 0 L 137.1776419346171 -3.5 L 137.1776419346171 -0.5 L 98.97553971730855 -0.5 Z"/><text text-anchor="middle" pointer-events="none" font-size="8px" fill="#000000" x="81.08882096730855" y="3" transform="rotate(180 81.08882096730855 0)" font-family="sans-serif">WROTE</text></g><g class="relationship" transform="translate(96.38282870817241 -98.23761070981014) rotate(442.9361114644058)"><path class="outline" fill="#A5ABB6" stroke="none" d="M 25 0.5 L 65.03487169168693 0.5 L 65.03487169168693 -0.5 L 25 -0.5 Z M 100.80830919168693 0.5 L 140.84318088337386 0.5 L 140.84318088337386 3.5 L 147.84318088337386 0 L 140.84318088337386 -3.5 L 140.84318088337386 -0.5 L 100.80830919168693 -0.5 Z"/><text text-anchor="middle" pointer-events="none" font-size="8px" fill="#000000" x="82.92159044168693" y="3" font-family="sans-serif">WROTE</text></g><g class="relationship" transform="translate(24.2369937456142 -72.74346828626378) rotate(417.3981116304981)"><path class="outline" fill="#A5ABB6" stroke="none" d="M 25 0.5 L 60.39437445419962 0.5 L 60.39437445419962 -0.5 L 25 -0.5 Z M 105.95687445419962 0.5 L 141.35124890839924 0.5 L 141.35124890839924 3.5 L 148.35124890839924 0 L 141.35124890839924 -3.5 L 141.35124890839924 -0.5 L 105.95687445419962 -0.5 Z"/><text text-anchor="middle" pointer-events="none" font-size="8px" fill="#000000" x="83.17562445419962" y="3" font-family="sans-serif">ACTED_IN</text></g><g class="relationship" transform="translate(173.11720640777895 -33.34623360539742) rotate(477.4854615162984)"><path class="outline" fill="#A5ABB6" stroke="none" d="M 25 0.5 L 33.82274048017642 0.5 L 33.82274048017642 -0.5 L 25 -0.5 Z M 79.38524048017642 0.5 L 88.20798096035284 0.5 L 88.20798096035284 3.5 L 95.20798096035284 0 L 88.20798096035284 -3.5 L 88.20798096035284 -0.5 L 79.38524048017642 -0.5 Z"/><text text-anchor="middle" pointer-events="none" font-size="8px" fill="#000000" x="56.60399048017642" y="3" transform="rotate(180 56.60399048017642 0)" font-family="sans-serif">ACTED_IN</text></g><g class="relationship" transform="translate(-26.835058628302313 -30.434616895333647) rotate(395.67738025019435)"><path class="outline" fill="#A5ABB6" stroke="none" d="M 25 0.5 L 62.645865985074295 0.5 L 62.645865985074295 -0.5 L 25 -0.5 Z M 108.2083659850743 0.5 L 145.8542319701486 0.5 L 145.8542319701486 3.5 L 152.8542319701486 0 L 145.8542319701486 -3.5 L 145.8542319701486 -0.5 L 108.2083659850743 -0.5 Z"/><text text-anchor="middle" pointer-events="none" font-size="8px" fill="#000000" x="85.4271159850743" y="3" font-family="sans-serif">ACTED_IN</text></g><g class="relationship" transform="translate(75.71913317342344 -41.94530604901096) rotate(430.0106603188155)"><path class="outline" fill="#A5ABB6" stroke="none" d="M 25 0.5 L 35.03195535966281 0.5 L 35.03195535966281 -0.5 L 25 -0.5 Z M 80.59445535966282 0.5 L 90.62641071932562 0.5 L 90.62641071932562 3.5 L 97.62641071932562 0 L 90.62641071932562 -3.5 L 90.62641071932562 -0.5 L 80.59445535966282 -0.5 Z"/><text text-anchor="middle" pointer-events="none" font-size="8px" fill="#000000" x="57.81320535966281" y="3" font-family="sans-serif">ACTED_IN</text></g><g class="relationship" transform="translate(-43.5839068986728 31.406649112430106) rotate(374.56395663125767)"><path class="outline" fill="#A5ABB6" stroke="none" d="M 25 0.5 L 57.00612870211913 0.5 L 57.00612870211913 -0.5 L 25 -0.5 Z M 102.56862870211913 0.5 L 134.57475740423826 0.5 L 134.57475740423826 3.5 L 141.57475740423826 0 L 134.57475740423826 -3.5 L 134.57475740423826 -0.5 L 102.56862870211913 -0.5 Z"/><text text-anchor="middle" pointer-events="none" font-size="8px" fill="#000000" x="79.78737870211913" y="3" font-family="sans-serif">ACTED_IN</text></g><g class="relationship" transform="translate(17.201099840490087 10.277532206983096) rotate(392.10487115252107)"><path class="outline" fill="#A5ABB6" stroke="none" d="M 25 0.5 L 33.00339966122436 0.5 L 33.00339966122436 -0.5 L 25 -0.5 Z M 78.56589966122436 0.5 L 86.56929932244871 0.5 L 86.56929932244871 3.5 L 93.56929932244871 0 L 86.56929932244871 -3.5 L 86.56929932244871 -0.5 L 78.56589966122436 -0.5 Z"/><text text-anchor="middle" pointer-events="none" font-size="8px" fill="#000000" x="55.78464966122436" y="3" font-family="sans-serif">ACTED_IN</text></g><g class="relationship" transform="translate(-59.4403862637909 89.2584707315346) rotate(354.8483283258129)"><path class="outline" fill="#A5ABB6" stroke="none" d="M 25 0.5 L 62.617247024794565 0.5 L 62.617247024794565 -0.5 L 25 -0.5 Z M 108.17974702479457 0.5 L 145.79699404958913 0.5 L 145.79699404958913 3.5 L 152.79699404958913 0 L 145.79699404958913 -3.5 L 145.79699404958913 -0.5 L 108.17974702479457 -0.5 Z"/><text text-anchor="middle" pointer-events="none" font-size="8px" fill="#000000" x="85.39849702479457" y="3" font-family="sans-serif">ACTED_IN</text></g><g class="relationship" transform="translate(-0.8507751309534577 102.14518782080997) rotate(346.3150572074517)"><path class="outline" fill="#A5ABB6" stroke="none" d="M 25 0.5 L 34.6943516732025 0.5 L 34.6943516732025 -0.5 L 25 -0.5 Z M 80.2568516732025 0.5 L 89.951203346405 0.5 L 89.951203346405 3.5 L 96.951203346405 0 L 89.951203346405 -3.5 L 89.951203346405 -0.5 L 80.2568516732025 -0.5 Z"/><text text-anchor="middle" pointer-events="none" font-size="8px" fill="#000000" x="57.4756016732025" y="3" font-family="sans-serif">ACTED_IN</text></g><g class="relationship" transform="translate(-37.09836583858191 151.56683376805103) rotate(333.16754617277843)"><path class="outline" fill="#A5ABB6" stroke="none" d="M 25 0.5 L 60.42249835964866 0.5 L 60.42249835964866 -0.5 L 25 -0.5 Z M 105.98499835964866 0.5 L 141.4074967192973 0.5 L 141.4074967192973 3.5 L 148.4074967192973 0 L 141.4074967192973 -3.5 L 141.4074967192973 -0.5 L 105.98499835964866 -0.5 Z"/><text text-anchor="middle" pointer-events="none" font-size="8px" fill="#000000" x="83.20374835964866" y="3" font-family="sans-serif">ACTED_IN</text></g><g class="relationship" transform="translate(37.41389467285018 164.96632308211255) rotate(311.18978090801556)"><path class="outline" fill="#A5ABB6" stroke="none" d="M 25 0.5 L 34.62821852800775 0.5 L 34.62821852800775 -0.5 L 25 -0.5 Z M 80.19071852800775 0.5 L 89.8189370560155 0.5 L 89.8189370560155 3.5 L 96.8189370560155 0 L 89.8189370560155 -3.5 L 89.8189370560155 -0.5 L 80.19071852800775 -0.5 Z"/><text text-anchor="middle" pointer-events="none" font-size="8px" fill="#000000" x="57.40946852800775" y="3" font-family="sans-serif">ACTED_IN</text></g><g class="relationship" transform="translate(-4.749884234426947 207.6117459858248) rotate(312.33922518838665)"><path class="outline" fill="#A5ABB6" stroke="none" d="M 25 0.5 L 64.57612125068434 0.5 L 64.57612125068434 -0.5 L 25 -0.5 Z M 110.13862125068434 0.5 L 149.71474250136868 0.5 L 149.71474250136868 3.5 L 156.71474250136868 0 L 149.71474250136868 -3.5 L 149.71474250136868 -0.5 L 110.13862125068434 -0.5 Z"/><text text-anchor="middle" pointer-events="none" font-size="8px" fill="#000000" x="87.35737125068434" y="3" font-family="sans-serif">ACTED_IN</text></g><g class="relationship" transform="translate(57.74316852503257 243.01813619150516) rotate(289.43777122580275)"><path class="outline" fill="#A5ABB6" stroke="none" d="M 25 0.5 L 63.71020330721093 0.5 L 63.71020330721093 -0.5 L 25 -0.5 Z M 109.27270330721093 0.5 L 147.98290661442186 0.5 L 147.98290661442186 3.5 L 154.98290661442186 0 L 147.98290661442186 -3.5 L 147.98290661442186 -0.5 L 109.27270330721093 -0.5 Z"/><text text-anchor="middle" pointer-events="none" font-size="8px" fill="#000000" x="86.49145330721093" y="3" font-family="sans-serif">ACTED_IN</text></g></g><g class="layer nodes"><g class="node" transform="translate(117.63839538202379,73.29362861194183)"><circle class="outline" cx="0" cy="0" r="25" fill="#6DCE9E" stroke="#60B58B" stroke-width="2px"/><text text-anchor="middle" pointer-events="none" y="-5" font-size="10px" fill="#FFFFFF" font-family="sans-serif"> Captain</text><text text-anchor="middle" pointer-events="none" y="5" font-size="10px" fill="#FFFFFF" font-family="sans-serif"> America:</text><text text-anchor="middle" pointer-events="none" y="15" font-size="10px" fill="#FFFFFF" font-family="sans-serif"> The Fi…</text></g><g class="node" transform="translate(130.51632059377664,248.0725082768966)"><circle class="outline" cx="0" cy="0" r="25" fill="#68BDF6" stroke="#5CA8DB" stroke-width="2px"/><text text-anchor="middle" pointer-events="none" y="5" font-size="10px" fill="#FFFFFF" font-family="sans-serif"> Sebastian</text></g><g class="node" transform="translate(174.4240573547971,179.73098895238346)"><circle class="outline" cx="0" cy="0" r="25" fill="#68BDF6" stroke="#5CA8DB" stroke-width="2px"/><text text-anchor="middle" pointer-events="none" y="0" font-size="10px" fill="#FFFFFF" font-family="sans-serif"> Tommy</text><text text-anchor="middle" pointer-events="none" y="10" font-size="10px" fill="#FFFFFF" font-family="sans-serif"> Lee Jon…</text></g><g class="node" transform="translate(247.4404812584204,189.9485799424075)"><circle class="outline" cx="0" cy="0" r="25" fill="#68BDF6" stroke="#5CA8DB" stroke-width="2px"/><text text-anchor="middle" pointer-events="none" y="0" font-size="10px" fill="#FFFFFF" font-family="sans-serif"> Chris</text><text text-anchor="middle" pointer-events="none" y="10" font-size="10px" fill="#FFFFFF" font-family="sans-serif"> Evans</text></g><g class="node" transform="translate(97.43630328208275,198.0327564445618)"><circle class="outline" cx="0" cy="0" r="25" fill="#68BDF6" stroke="#5CA8DB" stroke-width="2px"/><text text-anchor="middle" pointer-events="none" y="0" font-size="10px" fill="#FFFFFF" font-family="sans-serif"> Hayley</text><text text-anchor="middle" pointer-events="none" y="10" font-size="10px" fill="#FFFFFF" font-family="sans-serif"> Atwell</text></g><g class="node" transform="translate(194.44649221474447,236.24598831110538)"><circle class="outline" cx="0" cy="0" r="25" fill="#68BDF6" stroke="#5CA8DB" stroke-width="2px"/><text text-anchor="middle" pointer-events="none" y="0" font-size="10px" fill="#FFFFFF" font-family="sans-serif"> Richard</text><text text-anchor="middle" pointer-events="none" y="10" font-size="10px" fill="#FFFFFF" font-family="sans-serif"> Armitage</text></g><g class="node" transform="translate(286.7270077181764,118.82004999759405)"><circle class="outline" cx="0" cy="0" r="25" fill="#68BDF6" stroke="#5CA8DB" stroke-width="2px"/><text text-anchor="middle" pointer-events="none" y="0" font-size="10px" fill="#FFFFFF" font-family="sans-serif"> Stanley</text><text text-anchor="middle" pointer-events="none" y="10" font-size="10px" fill="#FFFFFF" font-family="sans-serif"> Tucci</text></g><g class="node" transform="translate(228.48240712482817,133.02421600684616)"><circle class="outline" cx="0" cy="0" r="25" fill="#68BDF6" stroke="#5CA8DB" stroke-width="2px"/><text text-anchor="middle" pointer-events="none" y="0" font-size="10px" fill="#FFFFFF" font-family="sans-serif"> Hugo</text><text text-anchor="middle" pointer-events="none" y="10" font-size="10px" fill="#FFFFFF" font-family="sans-serif"> Weaving</text></g><g class="node" transform="translate(285.55878970222847,58.82569722370866)"><circle class="outline" cx="0" cy="0" r="25" fill="#68BDF6" stroke="#5CA8DB" stroke-width="2px"/><text text-anchor="middle" pointer-events="none" y="0" font-size="10px" fill="#FFFFFF" font-family="sans-serif"> Dominic</text><text text-anchor="middle" pointer-events="none" y="10" font-size="10px" fill="#FFFFFF" font-family="sans-serif"> Cooper</text></g><g class="node" transform="translate(230.00871793583323,36.19841985606756)"><circle class="outline" cx="0" cy="0" r="25" fill="#68BDF6" stroke="#5CA8DB" stroke-width="2px"/><text text-anchor="middle" pointer-events="none" y="0" font-size="10px" fill="#FFFFFF" font-family="sans-serif"> Joe</text><text text-anchor="middle" pointer-events="none" y="10" font-size="10px" fill="#FFFFFF" font-family="sans-serif"> Johnson</text></g><g class="node" transform="translate(266.12199337212957,-11.680640498779779)"><circle class="outline" cx="0" cy="0" r="25" fill="#68BDF6" stroke="#5CA8DB" stroke-width="2px"/><text text-anchor="middle" pointer-events="none" y="0" font-size="10px" fill="#FFFFFF" font-family="sans-serif"> Joe</text><text text-anchor="middle" pointer-events="none" y="10" font-size="10px" fill="#FFFFFF" font-family="sans-serif"> Simon</text></g><g class="node" transform="translate(227.13989237914274,-59.381640387164694)"><circle class="outline" cx="0" cy="0" r="25" fill="#68BDF6" stroke="#5CA8DB" stroke-width="2px"/><text text-anchor="middle" pointer-events="none" y="5" font-size="10px" fill="#FFFFFF" font-family="sans-serif"> Jack Kirby</text></g><g class="node" transform="translate(157.24194847336497,-91.18321812673697)"><circle class="outline" cx="0" cy="0" r="25" fill="#68BDF6" stroke="#5CA8DB" stroke-width="2px"/><text text-anchor="middle" pointer-events="none" y="5" font-size="10px" fill="#FFFFFF" font-family="sans-serif"> Christop…</text></g><g class="node" transform="translate(96.38282870817241,-98.23761070981014)"><circle class="outline" cx="0" cy="0" r="25" fill="#68BDF6" stroke="#5CA8DB" stroke-width="2px"/><text text-anchor="middle" pointer-events="none" y="0" font-size="10px" fill="#FFFFFF" font-family="sans-serif"> Stephen</text><text text-anchor="middle" pointer-events="none" y="10" font-size="10px" fill="#FFFFFF" font-family="sans-serif"> McFeely</text></g><g class="node" transform="translate(24.2369937456142,-72.74346828626378)"><circle class="outline" cx="0" cy="0" r="25" fill="#68BDF6" stroke="#5CA8DB" stroke-width="2px"/><text text-anchor="middle" pointer-events="none" y="0" font-size="10px" fill="#FFFFFF" font-family="sans-serif"> Natalie</text><text text-anchor="middle" pointer-events="none" y="10" font-size="10px" fill="#FFFFFF" font-family="sans-serif"> Dormer</text></g><g class="node" transform="translate(173.11720640777895,-33.34623360539742)"><circle class="outline" cx="0" cy="0" r="25" fill="#68BDF6" stroke="#5CA8DB" stroke-width="2px"/><text text-anchor="middle" pointer-events="none" y="0" font-size="10px" fill="#FFFFFF" font-family="sans-serif"> Martin</text><text text-anchor="middle" pointer-events="none" y="10" font-size="10px" fill="#FFFFFF" font-family="sans-serif"> Sherman</text></g><g class="node" transform="translate(-26.835058628302313,-30.434616895333647)"><circle class="outline" cx="0" cy="0" r="25" fill="#68BDF6" stroke="#5CA8DB" stroke-width="2px"/><text text-anchor="middle" pointer-events="none" y="0" font-size="10px" fill="#FFFFFF" font-family="sans-serif"> Nicholas</text><text text-anchor="middle" pointer-events="none" y="10" font-size="10px" fill="#FFFFFF" font-family="sans-serif"> Pinnock</text></g><g class="node" transform="translate(75.71913317342344,-41.94530604901096)"><circle class="outline" cx="0" cy="0" r="25" fill="#68BDF6" stroke="#5CA8DB" stroke-width="2px"/><text text-anchor="middle" pointer-events="none" y="0" font-size="10px" fill="#FFFFFF" font-family="sans-serif"> William</text><text text-anchor="middle" pointer-events="none" y="10" font-size="10px" fill="#FFFFFF" font-family="sans-serif"> Hope</text></g><g class="node" transform="translate(-43.5839068986728,31.406649112430106)"><circle class="outline" cx="0" cy="0" r="25" fill="#68BDF6" stroke="#5CA8DB" stroke-width="2px"/><text text-anchor="middle" pointer-events="none" y="0" font-size="10px" fill="#FFFFFF" font-family="sans-serif"> Toby</text><text text-anchor="middle" pointer-events="none" y="10" font-size="10px" fill="#FFFFFF" font-family="sans-serif"> Jones</text></g><g class="node" transform="translate(17.201099840490087,10.277532206983096)"><circle class="outline" cx="0" cy="0" r="25" fill="#68BDF6" stroke="#5CA8DB" stroke-width="2px"/><text text-anchor="middle" pointer-events="none" y="-5" font-size="10px" fill="#FFFFFF" font-family="sans-serif"> Samuel</text><text text-anchor="middle" pointer-events="none" y="5" font-size="10px" fill="#FFFFFF" font-family="sans-serif"> L.</text><text text-anchor="middle" pointer-events="none" y="15" font-size="10px" fill="#FFFFFF" font-family="sans-serif"> Jackson</text></g><g class="node" transform="translate(-59.4403862637909,89.2584707315346)"><circle class="outline" cx="0" cy="0" r="25" fill="#68BDF6" stroke="#5CA8DB" stroke-width="2px"/><text text-anchor="middle" pointer-events="none" y="0" font-size="10px" fill="#FFFFFF" font-family="sans-serif"> Derek</text><text text-anchor="middle" pointer-events="none" y="10" font-size="10px" fill="#FFFFFF" font-family="sans-serif"> Luke</text></g><g class="node" transform="translate(-0.8507751309534577,102.14518782080997)"><circle class="outline" cx="0" cy="0" r="25" fill="#68BDF6" stroke="#5CA8DB" stroke-width="2px"/><text text-anchor="middle" pointer-events="none" y="0" font-size="10px" fill="#FFFFFF" font-family="sans-serif"> Neal</text><text text-anchor="middle" pointer-events="none" y="10" font-size="10px" fill="#FFFFFF" font-family="sans-serif"> McDon…</text></g><g class="node" transform="translate(-37.09836583858191,151.56683376805103)"><circle class="outline" cx="0" cy="0" r="25" fill="#68BDF6" stroke="#5CA8DB" stroke-width="2px"/><text text-anchor="middle" pointer-events="none" y="5" font-size="10px" fill="#FFFFFF" font-family="sans-serif"> JJ Feild</text></g><g class="node" transform="translate(37.41389467285018,164.96632308211255)"><circle class="outline" cx="0" cy="0" r="25" fill="#68BDF6" stroke="#5CA8DB" stroke-width="2px"/><text text-anchor="middle" pointer-events="none" y="0" font-size="10px" fill="#FFFFFF" font-family="sans-serif"> Kenneth</text><text text-anchor="middle" pointer-events="none" y="10" font-size="10px" fill="#FFFFFF" font-family="sans-serif"> Choi</text></g><g class="node" transform="translate(-4.749884234426947,207.6117459858248)"><circle class="outline" cx="0" cy="0" r="25" fill="#68BDF6" stroke="#5CA8DB" stroke-width="2px"/><text text-anchor="middle" pointer-events="none" y="0" font-size="10px" fill="#FFFFFF" font-family="sans-serif"> Michael</text><text text-anchor="middle" pointer-events="none" y="10" font-size="10px" fill="#FFFFFF" font-family="sans-serif"> Brandon</text></g><g class="node" transform="translate(57.74316852503257,243.01813619150516)"><circle class="outline" cx="0" cy="0" r="25" fill="#68BDF6" stroke="#5CA8DB" stroke-width="2px"/><text text-anchor="middle" pointer-events="none" y="0" font-size="10px" fill="#FFFFFF" font-family="sans-serif"> Lex</text><text text-anchor="middle" pointer-events="none" y="10" font-size="10px" fill="#FFFFFF" font-family="sans-serif"> Shrapnel</text></g></g></svg>